<svg id="Layer_1" data-name="Layer 1" xmlns="http://www.w3.org/2000/svg" xmlns:xlink="http://www.w3.org/1999/xlink" viewBox="0 0 945.02 945.02"><defs><style>.cls-1{fill:#3f56bf;}.cls-1,.cls-3,.cls-4{fill-rule:evenodd;}.cls-2{fill:url(#linear-gradient);}.cls-3,.cls-4{fill:#fff;}.cls-4{stroke:#fff;stroke-miterlimit:10;}</style><linearGradient id="linear-gradient" x1="540" y1="67.49" x2="540" y2="1012.51" gradientTransform="matrix(1, 0, 0, -1, -67.49, 1012.51)" gradientUnits="userSpaceOnUse"><stop offset="0" stop-color="#4642b1"/><stop offset="0.22" stop-color="#4946b3"/><stop offset="0.42" stop-color="#5351b7"/><stop offset="0.62" stop-color="#6463bf"/><stop offset="0.81" stop-color="#7c7eca"/><stop offset="1" stop-color="#9a9fd9"/><stop offset="1" stop-color="#9ba0d9"/></linearGradient></defs><title>logo (2)</title><path class="cls-1" d="M533.75,142.41a24.45,24.45,0,0,1,3-4.6,27.24,27.24,0,0,1,48.1,21c-.07.51-.16,1-.26,1.52a24,24,0,0,1-2.4,6.63,25.44,25.44,0,0,1-8.62,9.79,26.94,26.94,0,0,1-27.91,2.15A27.27,27.27,0,0,1,533.75,142.41Z" transform="translate(-67.49 -67.49)"/><circle class="cls-2" cx="472.51" cy="472.51" r="472.51"/><path class="cls-3" d="M554.38,503.72a45.23,45.23,0,0,0-55.77,12.15,49.49,49.49,0,0,0-4.93,7.72,45.15,45.15,0,1,0,60.7-19.87Z" transform="translate(-67.49 -67.49)"/><path class="cls-4" d="M707.66,773.36h0c-3.13,9.5-6.36,18.59-9.89,27.41h0C663.4,887.55,611.41,943,553,943.26v.1c-63.16.39-119.36-63.35-154.52-161.66h30.65c29.38,84,74,137.58,123.67,137.28,46.12-.29,87.25-46.81,115.74-120.83h0c3.33-8.81,6.56-18.1,9.5-27.7v0h0c19.67-62.18,31-139.52,30.54-223.33-.39-68.74-8.71-133-22.91-188.1a.13.13,0,0,1,0-.06c-2.55-10.16-5.39-19.94-8.41-29.41v0q15.59-.76,30.55-.69v0q4.56,14.1,8.52,29.08h0c15.17,56.08,23.89,120.41,24.28,189C741.05,631,728.91,709.12,707.66,773.36Z" transform="translate(-67.49 -67.49)"/><path class="cls-4" d="M546.73,211.08a36.46,36.46,0,0,0,6.56.49,17.53,17.53,0,0,0,3.23-.2A54.06,54.06,0,0,1,546.73,211.08Zm-4.31-.59a31.29,31.29,0,0,0,4.31.59,48.17,48.17,0,0,1-5.48-.88Zm-25.24-92.9c.24-.27.5-.53.75-.77-.26.24-.51.5-.76.77Zm-5.88,6.07a23.69,23.69,0,0,1,2.5-2.92,23.06,23.06,0,0,0-2.51,2.92Zm-4.42,61.78a60.53,60.53,0,0,1-4.7-9.89A45.32,45.32,0,0,0,506.88,185.44ZM499,158a7.78,7.78,0,0,0,.1,1.57,58.8,58.8,0,0,1,.39-8.23A37.58,37.58,0,0,0,499,158Z" transform="translate(-67.49 -67.49)"/><path class="cls-4" d="M894,687.69a53.92,53.92,0,0,0-66.49,14.49,58.79,58.79,0,0,0-5.87,9.2,53.45,53.45,0,0,0-1.57,45,52.27,52.27,0,0,0,14.49,20.07h0a50.85,50.85,0,0,0,10.76,7.24,53.84,53.84,0,0,0,48.67-96ZM893.9,748a27.24,27.24,0,0,1-36.52,12c-.1-.1-.2-.1-.29-.2h0c-.5-.27-1-.54-1.46-.83s-.79-.49-1.17-.75a25,25,0,0,1-2.31-1.75,11.91,11.91,0,0,1-1-.89l-.13-.12c-.32-.29-.64-.6-.93-.92l-.27-.28c-.16-.16-.31-.33-.45-.5l-.52-.6c-.17-.19-.32-.38-.47-.57l-.52-.69a5.45,5.45,0,0,1-.37-.51c-.19-.26-.37-.53-.54-.79s-.22-.32-.31-.48-.35-.58-.52-.87-.24-.4-.34-.61-.28-.52-.41-.78-.34-.71-.5-1.07-.31-.72-.46-1.09-.32-.86-.46-1.29c0-.14-.1-.29-.14-.43a25.88,25.88,0,0,1-1-4.35,26.86,26.86,0,0,1,2.64-16.16,24.78,24.78,0,0,1,3-4.6A27.13,27.13,0,0,1,893.9,748Z" transform="translate(-67.49 -67.49)"/><path class="cls-4" d="M834.56,776.49h0c-33.59,19.39-81.18,27.42-136.79,24.28-9.5-.49-19.29-1.37-29.28-2.64-70.21-8.32-150.5-32.9-230.6-73.54C346.24,678.09,271.23,619,222.47,559.7l0-.05c-5.86-7.13-11.43-14.27-16.41-21.39l0,0c-42.48-59.42-57.34-117.46-34.93-161.71v-.1C199.55,320.1,281.9,299.24,385.4,313l-14,27.22c-88.13-12.24-156.18,2.94-178.6,47.29-17.53,34.47-4.41,80.88,31.63,129.94h0q7.77,10.56,17,21.41v0c47.1,55,120.93,111.73,210.82,157.26,79.51,40.34,158.53,65.31,225.7,74.32h0q15.27,2.05,29.66,2.94c46.22,3.13,85.09-2.45,112.41-16.94A52.27,52.27,0,0,0,834.56,776.49Z" transform="translate(-67.49 -67.49)"/><path class="cls-4" d="M576.55,109.38a17.78,17.78,0,0,1,2,1,7.94,7.94,0,0,0-1.17-.69A5.64,5.64,0,0,0,576.55,109.38Zm-65.74,14.77a17.88,17.88,0,0,0-1.14,1.53c.53-.7,1.1-1.35,1.61-2A1.21,1.21,0,0,0,510.81,124.15Z" transform="translate(-67.49 -67.49)"/><path class="cls-4" d="M605.34,170.31l-.06,0a0,0,0,0,0,0,0c.1-.49.29-1.08.39-1.66.29-1.76.59-3.43.78-5.19v-.29a40.26,40.26,0,0,0,.29-4.9v-1.08a49.11,49.11,0,0,0-.54-7c0-.29-.1-.69-.1-1-.1-.49-.2-1-.29-1.47a57.81,57.81,0,0,0-1.47-6,5.79,5.79,0,0,0-.59-1.86,57.42,57.42,0,0,0-3.52-7.93c-.88-1.47-1.76-2.94-2.74-4.41-.88-1.27-1.76-2.45-2.64-3.62a2.55,2.55,0,0,0-.49-.59c-1.08-1.27-2.25-2.55-3.43-3.72a56.22,56.22,0,0,0-7-5.87,12.51,12.51,0,0,0-1.47-1c-1.27-.78-2.55-1.57-3.82-2.25a.35.35,0,0,0-.2-.1,17.78,17.78,0,0,0-2-1,1.45,1.45,0,0,0-.69-.29,14.79,14.79,0,0,0-3.43-1.47,10.66,10.66,0,0,0-2.45-.88,23.24,23.24,0,0,0-4.9-1.47,40.12,40.12,0,0,0-5.78-1h-.1a44.07,44.07,0,0,0-6.17-.39,52.37,52.37,0,0,0-16.55,2.64,16.78,16.78,0,0,0-2.84,1l-.83.31-1.68.69-.82.37a23.29,23.29,0,0,0-4,2.15c-1,.49-1.86,1.08-2.84,1.66a35.24,35.24,0,0,0-3,2.15,18.65,18.65,0,0,0-2.48,2c-.25.24-.51.5-.75.77h0a30.67,30.67,0,0,0-2.44,2.25l-.93.9a23.69,23.69,0,0,0-2.5,2.92h0c-.51.66-1.08,1.31-1.61,2l-.53.72c-.59.88-1.27,1.86-1.86,2.84a23.56,23.56,0,0,0-2.15,3.82c-.1.1-.1.2-.2.29s-.2.29-.2.49a50.47,50.47,0,0,0-2.06,4.7,6.41,6.41,0,0,0-.59,1.76,16.35,16.35,0,0,0-1.08,3.52,16.22,16.22,0,0,0-.59,2,53.88,53.88,0,0,0-.88,5.58,58.8,58.8,0,0,0-.39,8.23c0,.49.1,1.08.1,1.57v.1c.1,1.17.2,2.45.39,3.62a57.91,57.91,0,0,0,2.55,10.67,56.4,56.4,0,0,0,8.91,16,31.92,31.92,0,0,0,2.45,2.74,21.33,21.33,0,0,0,2.55,2.64c.88.88,1.76,1.57,2.64,2.35a57.49,57.49,0,0,0,9.89,6.46,52.15,52.15,0,0,0,5.87,2.55,52.9,52.9,0,0,0,5.29,1.66l1.47.29a48.17,48.17,0,0,0,5.48.88,54.06,54.06,0,0,0,9.79.29,62.13,62.13,0,0,0,7.25-1l3.52-.88c1.17-.29,2.35-.69,3.53-1.08a56.9,56.9,0,0,0,6.66-2.94,27.05,27.05,0,0,0,3.23-1.76,48.22,48.22,0,0,0,8.81-6.66,19.3,19.3,0,0,0,2.45-2.35c.77-.77,1.46-1.56,2.14-2.33l.06,0c33.59,23.5,62.66,72.36,83,137.07q15.59-.76,30.55-.69C683.47,254.21,647.44,197.43,605.34,170.31ZM540.7,181.93a27.27,27.27,0,0,1-12-36.52,24.45,24.45,0,0,1,3-4.6,27.24,27.24,0,0,1,48.1,21c-.06.51-.15,1-.26,1.52a24,24,0,0,1-2.4,6.63,25.44,25.44,0,0,1-8.62,9.79A26.94,26.94,0,0,1,540.7,181.93Z" transform="translate(-67.49 -67.49)"/><path class="cls-4" d="M811.84,620.81l-9.3-29.18c71-53.66,108.3-112.61,92.92-159.71-16.05-48.92-85.21-74.4-179.18-74q-14.92.06-30.66,1C627.3,362.41,561.4,375,493.7,397.16,385.51,432.58,295.45,485,241.46,538.82q-10.44,10.39-19,20.83c-5.86-7.13-11.43-14.27-16.41-21.39l0,0q8.47-10.44,18.45-20.8c56.82-59,148.73-114.52,259.27-150.72,67.57-22.1,133.79-34.27,193.49-37.19q15.59-.76,30.55-.69c108.63.52,190.62,33.89,210.82,95.46C938.26,484.31,894.78,557.26,811.84,620.81Z" transform="translate(-67.49 -67.49)"/><path class="cls-4" d="M194.86,616.21a19.8,19.8,0,0,0-3.92-1.66h0c5.45-17.8,16.19-36.31,31.5-54.89-5.86-7.13-11.43-14.27-16.41-21.39l0,0c-19.65,24.21-33.2,48.7-39.54,72.4v0a53.68,53.68,0,0,0-38.07,20.07,59.58,59.58,0,0,0-5.88,9.2,53.84,53.84,0,1,0,72.37-23.69Zm-.1,60.31A27.17,27.17,0,0,1,146.29,652a24.78,24.78,0,0,1,3-4.6,26.73,26.73,0,0,1,13-9A26.35,26.35,0,0,1,182.82,640c.37.17.72.35,1.07.55a21.58,21.58,0,0,1,2,1.28l1,.72A26.91,26.91,0,0,1,194.76,676.52Z" transform="translate(-67.49 -67.49)"/></svg>