<?xml version="1.0" encoding="utf-8"?>
<!-- Generator: Adobe Illustrator 23.0.2, SVG Export Plug-In . SVG Version: 6.00 Build 0)  -->
<svg version="1.1" id="Layer_1" xmlns="http://www.w3.org/2000/svg" xmlns:xlink="http://www.w3.org/1999/xlink" x="0px" y="0px"
	 viewBox="0 0 1080 1080" style="enable-background:new 0 0 1080 1080;" xml:space="preserve">
<style type="text/css">
	.st0{fill-rule:evenodd;clip-rule:evenodd;fill:#3F56BF;}
	.st1{fill-rule:evenodd;clip-rule:evenodd;fill:url(#SVGID_1_);}
	.st2{fill-rule:evenodd;clip-rule:evenodd;fill:#FFFFFF;stroke:#FFFFFF;stroke-miterlimit:10;}
	.st3{fill-rule:evenodd;clip-rule:evenodd;fill:#FFFFFF;}
</style>
<g>
	<path class="st0" d="M533.75,142.41c0.88-1.67,1.86-3.23,3.04-4.6c7.83-9.99,21.84-13.32,33.49-7.34
		c9.6,4.8,15.08,14.49,14.88,24.48c0,1.3-0.08,2.6-0.27,3.89c-0.07,0.51-0.16,1.02-0.26,1.52c-0.46,2.27-1.25,4.49-2.4,6.63
		c-2.06,4.11-5.09,7.44-8.62,9.79c-7.93,5.68-18.6,6.85-27.91,2.15C532.38,172.17,527,155.72,533.75,142.41z"/>
	<path class="st0" d="M191.83,639.56c-0.32-0.24-0.63-0.48-0.96-0.72c-0.64-0.46-1.29-0.89-1.98-1.28c-0.35-0.2-0.7-0.38-1.07-0.55
		c-6.57-3.43-14.01-3.82-20.47-1.67c-5.09,1.57-9.59,4.7-13.02,9.01c-1.18,1.37-2.16,2.94-3.04,4.6
		c-6.75,13.31-1.37,29.76,11.95,36.52c13.41,6.75,29.76,1.37,36.52-11.95C205.93,661.58,202.21,647.18,191.83,639.56z
		 M191.83,639.56c-0.32-0.24-0.63-0.48-0.96-0.72c-0.64-0.46-1.29-0.89-1.98-1.28c-0.35-0.2-0.7-0.38-1.07-0.55
		c-6.57-3.43-14.01-3.82-20.47-1.67c-5.09,1.57-9.59,4.7-13.02,9.01c-1.18,1.37-2.16,2.94-3.04,4.6
		c-6.75,13.31-1.37,29.76,11.95,36.52c13.41,6.75,29.76,1.37,36.52-11.95C205.93,661.58,202.21,647.18,191.83,639.56z
		 M886.96,708.49c-11.65-5.98-25.66-2.65-33.49,7.34c-1.18,1.37-2.16,2.94-3.04,4.6c-2.64,5.19-3.42,10.77-2.64,16.16
		c0.21,1.48,0.54,2.93,1,4.35c0.04,0.14,0.09,0.29,0.14,0.43c0.14,0.43,0.3,0.86,0.46,1.29c0.15,0.36,0.3,0.73,0.46,1.09
		c0.16,0.36,0.33,0.71,0.5,1.07c0.13,0.26,0.27,0.52,0.41,0.78c0.11,0.21,0.22,0.41,0.34,0.61c0.17,0.29,0.34,0.58,0.52,0.87
		c0.1,0.16,0.2,0.32,0.31,0.48c0.17,0.26,0.35,0.53,0.54,0.79c0.12,0.17,0.24,0.35,0.37,0.51c0.17,0.23,0.34,0.46,0.52,0.69
		c0.15,0.19,0.31,0.38,0.47,0.57c0.17,0.2,0.34,0.4,0.52,0.6c0.15,0.17,0.3,0.33,0.45,0.5c0.09,0.09,0.18,0.18,0.27,0.28
		c0.29,0.32,0.61,0.63,0.93,0.92c0.04,0.04,0.08,0.08,0.13,0.12c0.33,0.32,0.66,0.62,1.01,0.89c0.73,0.62,1.5,1.21,2.31,1.75
		c0.38,0.26,0.77,0.51,1.17,0.75c0.47,0.29,0.96,0.56,1.46,0.83h0.01c0.09,0.1,0.19,0.1,0.29,0.2c13.41,6.75,29.76,1.37,36.52-11.95
		C905.75,731.59,900.37,715.24,886.96,708.49z M191.83,639.56c-0.32-0.24-0.63-0.48-0.96-0.72c-0.64-0.46-1.29-0.89-1.98-1.28
		c-0.35-0.2-0.7-0.38-1.07-0.55c-6.57-3.43-14.01-3.82-20.47-1.67c-5.09,1.57-9.59,4.7-13.02,9.01c-1.18,1.37-2.16,2.94-3.04,4.6
		c-6.75,13.31-1.37,29.76,11.95,36.52c13.41,6.75,29.76,1.37,36.52-11.95C205.93,661.58,202.21,647.18,191.83,639.56z"/>
	<linearGradient id="SVGID_1_" gradientUnits="userSpaceOnUse" x1="540" y1="1012.51" x2="540" y2="67.49">
		<stop  offset="8.524463e-08" style="stop-color:#4642B1"/>
		<stop  offset="0.2204" style="stop-color:#4946B3"/>
		<stop  offset="0.4228" style="stop-color:#5351B7"/>
		<stop  offset="0.6181" style="stop-color:#6463BF"/>
		<stop  offset="0.8089" style="stop-color:#7C7ECA"/>
		<stop  offset="0.9951" style="stop-color:#9A9FD9"/>
		<stop  offset="1" style="stop-color:#9BA0D9"/>
	</linearGradient>
	<circle class="st1" cx="540" cy="540" r="472.51"/>
	<g>
		<g>
			<path class="st2" d="M707.66,773.36v0.01c-3.13,9.5-6.36,18.59-9.89,27.41v0.01c-34.37,86.76-86.36,142.18-144.82,142.47v0.1
				c-63.16,0.39-119.36-63.35-154.52-161.66h30.65c29.38,84.01,74.03,137.58,123.67,137.28c46.12-0.29,87.25-46.81,115.74-120.83
				v-0.01c3.33-8.81,6.56-18.1,9.5-27.7c0-0.01,0-0.01,0-0.02H678c19.67-62.18,31.03-139.52,30.54-223.33
				c-0.39-68.74-8.71-132.97-22.91-188.1c-0.01-0.02-0.01-0.04-0.01-0.06c-2.55-10.16-5.39-19.94-8.41-29.41
				c0-0.01,0-0.01-0.01-0.02c10.39-0.51,20.58-0.74,30.55-0.69c0,0.01,0.01,0.02,0.01,0.03c3.04,9.4,5.87,19.09,8.52,29.08v0.01
				c15.17,56.08,23.89,120.41,24.28,188.95C741.05,630.99,728.91,709.12,707.66,773.36z"/>
			<path class="st2" d="M546.73,211.08c2.15,0.39,4.31,0.49,6.56,0.49c1.08,0,2.15,0,3.23-0.2
				C553.19,211.57,549.96,211.47,546.73,211.08z M542.42,210.49c1.37,0.29,2.84,0.49,4.31,0.59c-1.86-0.19-3.72-0.49-5.48-0.88
				C541.64,210.3,542.03,210.4,542.42,210.49z M517.18,117.59c0.24-0.27,0.5-0.53,0.75-0.77c-0.26,0.24-0.51,0.5-0.76,0.77H517.18z
				 M511.3,123.66c0.74-1.03,1.58-2,2.5-2.92c-0.92,0.91-1.77,1.89-2.51,2.92H511.3z M506.88,185.44c-1.86-3.13-3.43-6.46-4.7-9.89
				C503.35,179.08,504.92,182.31,506.88,185.44z M499.04,158.02c0,0.59,0,1.08,0.1,1.57c-0.1-2.75,0.1-5.39,0.39-8.23
				C499.14,153.51,499.04,155.77,499.04,158.02z"/>
		</g>
		<g>
			<path class="st2" d="M894,687.69c-23.21-11.75-50.92-5.09-66.49,14.49c-2.15,2.84-4.21,5.87-5.87,9.2
				c-7.44,14.59-7.44,31.04-1.57,45.04c3.13,7.64,8.03,14.59,14.49,20.07l0.01,0.01c3.23,2.83,6.84,5.28,10.76,7.24
				c26.44,13.41,58.95,2.74,72.36-23.7C931.21,733.51,920.53,701.1,894,687.69z M893.9,748.01c-6.76,13.32-23.11,18.7-36.52,11.95
				c-0.1-0.1-0.2-0.1-0.29-0.2h-0.01c-0.5-0.27-0.99-0.54-1.46-0.83c-0.4-0.24-0.79-0.49-1.17-0.75c-0.81-0.54-1.58-1.13-2.31-1.75
				c-0.35-0.27-0.68-0.57-1.01-0.89c-0.05-0.04-0.09-0.08-0.13-0.12c-0.32-0.29-0.64-0.6-0.93-0.92c-0.09-0.1-0.18-0.19-0.27-0.28
				c-0.16-0.16-0.31-0.33-0.45-0.5c-0.18-0.2-0.35-0.4-0.52-0.6c-0.17-0.19-0.32-0.38-0.47-0.57c-0.18-0.23-0.35-0.46-0.52-0.69
				c-0.14-0.17-0.26-0.34-0.37-0.51c-0.19-0.26-0.37-0.53-0.54-0.79c-0.11-0.16-0.22-0.32-0.31-0.48c-0.18-0.29-0.35-0.58-0.52-0.87
				c-0.12-0.2-0.24-0.4-0.34-0.61c-0.14-0.26-0.28-0.52-0.41-0.78c-0.17-0.35-0.34-0.71-0.5-1.07c-0.16-0.36-0.31-0.72-0.46-1.09
				c-0.16-0.43-0.32-0.86-0.46-1.29c-0.05-0.14-0.1-0.29-0.14-0.43c-0.46-1.42-0.79-2.87-1-4.35c-0.78-5.39,0-10.97,2.64-16.16
				c0.88-1.66,1.86-3.23,3.04-4.6c7.83-9.99,21.84-13.32,33.49-7.34C895.37,718.24,900.75,734.59,893.9,748.01z"/>
			<path class="st2" d="M834.56,776.49l0.01,0.01h-0.01c-33.59,19.39-81.18,27.42-136.79,24.28c-9.5-0.49-19.29-1.37-29.28-2.64
				c-70.21-8.32-150.5-32.9-230.6-73.54c-91.65-46.51-166.66-105.56-215.42-164.9c-0.01-0.02-0.03-0.03-0.04-0.05
				c-5.86-7.13-11.43-14.27-16.41-21.39c-0.01-0.02-0.02-0.03-0.03-0.05c-42.48-59.42-57.34-117.46-34.93-161.71v-0.1
				c28.49-56.3,110.84-77.16,214.34-63.45l-14,27.22c-88.13-12.24-156.18,2.94-178.6,47.29c-17.53,34.47-4.41,80.88,31.63,129.94
				c0,0,0,0.01,0.01,0.01c5.18,7.04,10.85,14.18,17.02,21.41c0,0.01,0,0.01,0.01,0.02c47.1,55.03,120.93,111.73,210.82,157.26
				c79.51,40.34,158.53,65.31,225.7,74.32H678c10.18,1.37,20.06,2.35,29.66,2.94c46.22,3.13,85.09-2.45,112.41-16.94
				C823.2,764.06,828.1,771.01,834.56,776.49z"/>
			<path class="st2" d="M576.55,109.38c0.69,0.29,1.26,0.59,1.95,0.98c-0.39-0.29-0.78-0.49-1.17-0.69
				C577.13,109.57,576.84,109.47,576.55,109.38z M510.81,124.15c-0.41,0.48-0.77,0.99-1.14,1.53c0.53-0.7,1.1-1.35,1.61-2.01
				C511.09,123.77,510.91,123.96,510.81,124.15z"/>
			<path class="st2" d="M605.34,170.31c-0.02-0.01-0.04-0.03-0.06-0.04c0.01-0.01,0.01-0.02,0.01-0.03c0.1-0.49,0.29-1.08,0.39-1.66
				c0.29-1.76,0.59-3.43,0.78-5.19v-0.29c0.2-1.67,0.29-3.23,0.29-4.9v-1.08c-0.05-2.31-0.15-4.66-0.54-7.01
				c0-0.29-0.1-0.69-0.1-0.98c-0.1-0.49-0.2-0.98-0.29-1.47c-0.39-2.06-0.88-4.01-1.47-5.97c-0.1-0.69-0.29-1.27-0.59-1.86
				c-0.98-2.74-2.15-5.39-3.52-7.93c-0.88-1.47-1.76-2.94-2.74-4.41c-0.88-1.27-1.76-2.45-2.64-3.62c-0.1-0.2-0.29-0.39-0.49-0.59
				c-1.08-1.27-2.25-2.55-3.43-3.72c-2.15-2.15-4.5-4.11-6.95-5.87c-0.49-0.39-0.98-0.69-1.47-0.98c-1.27-0.78-2.55-1.57-3.82-2.25
				c0,0-0.1-0.1-0.2-0.1c-0.69-0.39-1.26-0.69-1.95-0.98c-0.2-0.1-0.39-0.29-0.69-0.29c-1.08-0.69-2.25-1.08-3.43-1.47
				c-0.78-0.39-1.57-0.68-2.45-0.88c-1.66-0.69-3.23-1.17-4.9-1.47c-1.96-0.49-3.82-0.78-5.78-0.98h-0.1
				c-2.06-0.29-4.11-0.39-6.17-0.39c-5.68,0-11.26,0.88-16.55,2.64c-0.98,0.2-1.86,0.59-2.84,0.98c-0.27,0.1-0.55,0.2-0.83,0.31
				c-0.56,0.22-1.12,0.45-1.68,0.69c-0.27,0.12-0.55,0.25-0.82,0.37c-1.37,0.59-2.74,1.27-4.02,2.15c-0.98,0.49-1.86,1.08-2.84,1.66
				c-1.08,0.69-2.06,1.37-3.04,2.15c-0.88,0.59-1.7,1.23-2.48,1.97c-0.25,0.24-0.51,0.5-0.75,0.77h-0.01
				c-0.88,0.7-1.65,1.47-2.44,2.25c-0.32,0.3-0.63,0.6-0.93,0.9c-0.92,0.92-1.76,1.89-2.5,2.92h-0.01l-0.01,0.01
				c-0.51,0.66-1.08,1.31-1.61,2.01c-0.17,0.24-0.35,0.48-0.53,0.72c-0.59,0.88-1.27,1.86-1.86,2.84c-0.78,1.17-1.57,2.45-2.15,3.82
				c-0.1,0.1-0.1,0.2-0.2,0.29c-0.1,0.2-0.2,0.29-0.2,0.49c-0.78,1.57-1.47,3.13-2.06,4.7c-0.29,0.59-0.49,1.17-0.59,1.76
				c-0.49,1.17-0.88,2.35-1.08,3.52c-0.29,0.69-0.39,1.27-0.59,1.96c-0.39,1.86-0.69,3.72-0.88,5.58c-0.29,2.84-0.49,5.48-0.39,8.23
				c0,0.49,0.1,1.08,0.1,1.57c0,0,0,0,0,0.1c0.1,1.17,0.2,2.45,0.39,3.62c0.49,3.62,1.37,7.15,2.55,10.67
				c1.27,3.43,2.84,6.76,4.7,9.89c1.27,2.06,2.64,4.11,4.21,6.07c0.78,0.98,1.57,1.86,2.45,2.74c0.78,0.98,1.67,1.86,2.55,2.64
				c0.88,0.88,1.76,1.57,2.64,2.35c3.04,2.45,6.27,4.6,9.89,6.46c1.96,0.98,3.92,1.86,5.87,2.55c1.76,0.69,3.52,1.17,5.29,1.66
				c0.49,0.1,0.98,0.2,1.47,0.29c1.76,0.39,3.62,0.69,5.48,0.88c3.23,0.39,6.46,0.49,9.79,0.29c2.45-0.2,4.8-0.49,7.25-0.98
				c1.17-0.29,2.35-0.59,3.52-0.88c1.17-0.29,2.35-0.69,3.53-1.08c2.25-0.88,4.5-1.76,6.66-2.94c1.08-0.49,2.15-1.08,3.23-1.76
				c3.13-1.86,6.17-4.11,8.81-6.66c0.88-0.69,1.66-1.47,2.45-2.35c0.77-0.77,1.46-1.56,2.14-2.33c0.02,0.01,0.04,0.03,0.06,0.04
				c33.59,23.5,62.66,72.36,83.03,137.07c10.39-0.51,20.58-0.74,30.55-0.69C683.47,254.21,647.44,197.43,605.34,170.31z
				 M540.7,181.93c-13.32-6.76-18.7-23.21-11.95-36.52c0.88-1.67,1.86-3.23,3.04-4.6c7.83-9.99,21.84-13.32,33.49-7.34
				c9.6,4.8,15.08,14.49,14.88,24.48c0,1.3-0.08,2.6-0.27,3.89c-0.06,0.51-0.15,1.02-0.26,1.52c-0.46,2.27-1.25,4.49-2.4,6.63
				c-2.06,4.11-5.09,7.44-8.62,9.79C560.68,185.46,550.01,186.63,540.7,181.93z"/>
		</g>
		<g>
			<path class="st2" d="M811.84,620.81l-9.3-29.18c70.99-53.66,108.3-112.61,92.92-159.71c-16.05-48.92-85.21-74.4-179.18-73.99
				c-9.95,0.04-20.18,0.37-30.66,1c-58.32,3.48-124.22,16.06-191.92,38.23c-108.19,35.42-198.25,87.85-252.24,141.66
				c-6.96,6.93-13.31,13.89-19.03,20.83c-5.86-7.13-11.43-14.27-16.41-21.39c-0.01-0.02-0.02-0.03-0.03-0.05
				c5.65-6.96,11.81-13.91,18.45-20.8c56.82-59.02,148.73-114.52,259.27-150.72c67.57-22.1,133.79-34.27,193.49-37.19
				c10.39-0.51,20.58-0.74,30.55-0.69c108.63,0.52,190.62,33.89,210.82,95.46C938.26,484.31,894.78,557.26,811.84,620.81z"/>
		</g>
		<path class="st2" d="M194.86,616.21c-1.27-0.68-2.55-1.27-3.92-1.66h-0.01v-0.01c5.45-17.8,16.19-36.31,31.5-54.89
			c-5.86-7.13-11.43-14.27-16.41-21.39c-0.01-0.02-0.02-0.03-0.03-0.05c-19.65,24.21-33.2,48.7-39.54,72.4c0,0.01,0,0.01-0.01,0.02
			c-14.68,1.09-28.57,8.14-38.07,20.07c-2.15,2.84-4.21,5.87-5.88,9.2c-13.41,26.44-2.74,58.95,23.7,72.36
			c26.44,13.42,58.95,2.74,72.36-23.7C232.07,662.03,221.39,629.62,194.86,616.21z M194.76,676.52
			c-6.76,13.32-23.11,18.7-36.52,11.95c-13.32-6.76-18.7-23.21-11.95-36.52c0.88-1.66,1.86-3.23,3.04-4.6
			c3.43-4.31,7.93-7.44,13.02-9.01c6.46-2.15,13.9-1.76,20.47,1.67c0.37,0.17,0.72,0.35,1.07,0.55c0.69,0.39,1.34,0.82,1.98,1.28
			c0.33,0.24,0.64,0.48,0.96,0.72C197.21,650.18,200.93,664.58,194.76,676.52z"/>
	</g>
	<path class="st3" d="M554.38,503.72c-19.46-9.86-42.71-4.27-55.77,12.15c-1.81,2.38-3.53,4.93-4.93,7.72
		c-11.25,22.17-2.3,49.44,19.87,60.69c22.17,11.25,49.44,2.3,60.69-19.88C585.59,542.16,576.64,514.98,554.38,503.72z"/>
</g>
</svg>
