<?xml version="1.0" encoding="utf-8"?>
<!-- Generator: Adobe Illustrator 23.0.2, SVG Export Plug-In . SVG Version: 6.00 Build 0)  -->
<svg version="1.1" id="Layer_1" xmlns="http://www.w3.org/2000/svg" xmlns:xlink="http://www.w3.org/1999/xlink" x="0px" y="0px"
	 viewBox="0 0 1080 1080" style="enable-background:new 0 0 1080 1080;" xml:space="preserve">
<style type="text/css">
	.st0{fill-rule:evenodd;clip-rule:evenodd;fill:#3F56BF;}
	.st1{fill-rule:evenodd;clip-rule:evenodd;fill:#FFFFFF;stroke:#FFFFFF;stroke-miterlimit:10;}
	.st2{fill-rule:evenodd;clip-rule:evenodd;fill:#FFFFFF;}
</style>
<g>
	<circle class="st0" cx="540" cy="540" r="472.51"/>
	<g>
		<g>
			<path class="st1" d="M745.56,543.88c0.49,84.11-11.65,162.25-32.9,226.49c-3.13,9.5-6.36,18.6-9.89,27.42
				c-34.37,86.76-86.36,142.18-144.82,142.47v0.1c-63.16,0.39-119.36-63.35-154.52-161.66h30.65
				c29.38,84.01,74.03,137.58,123.67,137.28c46.12-0.29,87.25-46.81,115.74-120.83c3.33-8.81,6.56-18.11,9.5-27.71
				c19.68-62.18,31.04-139.53,30.55-223.35c-0.39-68.74-8.71-132.97-22.91-188.1c-2.55-10.18-5.39-19.98-8.42-29.47
				c-20.37-64.72-49.45-113.59-83.04-137.09c-8.23-5.78-16.84-9.99-25.56-12.63c3.53-2.35,6.56-5.68,8.62-9.79
				c2.06-3.82,2.94-7.93,2.94-12.04c8.62,2.94,16.94,7.05,25.17,12.34c42.11,27.12,78.14,83.92,102.42,158.53
				c3.04,9.4,5.87,19.09,8.52,29.08C736.45,411,745.17,475.34,745.56,543.88z"/>
			<path class="st1" d="M611.21,147.11c0-0.29-0.1-0.69-0.1-0.98c-0.1-0.49-0.2-0.98-0.29-1.47c-0.39-2.06-0.88-4.01-1.47-5.97
				c-0.1-0.69-0.29-1.27-0.59-1.86c-0.98-2.74-2.15-5.39-3.52-7.93c-0.88-1.47-1.76-2.94-2.74-4.41c-0.88-1.27-1.76-2.45-2.64-3.62
				c-0.1-0.2-0.29-0.39-0.49-0.59c-1.08-1.27-2.25-2.55-3.43-3.72c-2.15-2.15-4.5-4.11-6.95-5.87c-0.49-0.39-0.98-0.69-1.47-0.98
				c-1.27-0.78-2.55-1.57-3.82-2.25c0,0-0.1-0.1-0.2-0.1c-0.69-0.39-1.27-0.69-1.96-0.98c-0.2-0.1-0.39-0.29-0.69-0.29
				c-1.08-0.69-2.25-1.08-3.43-1.47c-0.78-0.39-1.57-0.68-2.45-0.88c-1.66-0.69-3.23-1.17-4.9-1.47c-1.96-0.49-3.82-0.78-5.78-0.98
				h-0.1c-2.06-0.29-4.11-0.39-6.17-0.39c-5.68,0-11.26,0.88-16.55,2.64c-0.98,0.2-1.86,0.59-2.84,0.98
				c-1.08,0.39-2.25,0.88-3.33,1.37c-1.37,0.59-2.74,1.27-4.02,2.15c-0.98,0.49-1.86,1.08-2.84,1.66c-1.08,0.69-2.06,1.37-3.04,2.15
				c-1.17,0.78-2.25,1.66-3.23,2.74c-0.88,0.69-1.66,1.47-2.45,2.25c-1.27,1.18-2.45,2.45-3.43,3.82c-0.69,0.88-1.47,1.76-2.15,2.74
				c-0.59,0.88-1.27,1.86-1.86,2.84c-0.78,1.17-1.57,2.45-2.15,3.82c-0.1,0.1-0.1,0.2-0.2,0.29c-0.1,0.2-0.2,0.29-0.2,0.49
				c-0.78,1.57-1.47,3.13-2.06,4.7c-0.29,0.59-0.49,1.17-0.59,1.76c-0.49,1.17-0.88,2.35-1.08,3.52c-0.29,0.69-0.39,1.27-0.59,1.96
				c-0.39,1.86-0.69,3.72-0.88,5.58c-0.39,2.15-0.49,4.41-0.49,6.66c0,0.59,0,1.08,0.1,1.57c0,0.49,0.1,1.08,0.1,1.57c0,0,0,0,0,0.1
				c0.1,1.17,0.2,2.45,0.39,3.62c0.49,3.62,1.37,7.15,2.55,10.67c1.17,3.53,2.74,6.76,4.7,9.89c1.27,2.06,2.64,4.11,4.21,6.07
				c0.78,0.98,1.57,1.86,2.45,2.74c0.78,0.98,1.67,1.86,2.55,2.64c0.88,0.88,1.76,1.57,2.64,2.35c3.04,2.45,6.27,4.6,9.89,6.46
				c1.96,0.98,3.92,1.86,5.87,2.55c1.76,0.69,3.52,1.17,5.29,1.66c0.49,0.1,0.98,0.2,1.47,0.29c0.39,0.1,0.78,0.2,1.17,0.29
				c1.37,0.29,2.84,0.49,4.31,0.59c2.15,0.39,4.31,0.49,6.56,0.49c1.08,0,2.15,0,3.23-0.2c2.45-0.2,4.8-0.49,7.25-0.98
				c1.17-0.29,2.35-0.59,3.52-0.88c1.17-0.29,2.35-0.69,3.53-1.08c2.25-0.88,4.5-1.76,6.66-2.94c1.08-0.49,2.15-1.08,3.23-1.76
				c3.13-1.86,6.17-4.11,8.81-6.66c0.88-0.69,1.66-1.47,2.45-2.35c0.78-0.78,1.47-1.57,2.15-2.35c1.37-1.66,2.64-3.33,3.82-5.19
				c0.88-1.27,1.57-2.45,2.25-3.82c0.1-0.1,0.1-0.1,0.1-0.2c0.29-0.39,0.49-0.78,0.69-1.17c0.49-0.98,0.98-1.96,1.37-2.94
				c0.1-0.2,0.2-0.29,0.2-0.49c1.17-2.74,2.15-5.48,2.74-8.32c0.1-0.49,0.29-1.08,0.39-1.66c0.29-1.76,0.59-3.43,0.78-5.19v-0.29
				c0.2-1.67,0.29-3.23,0.29-4.9v-1.08C611.7,151.81,611.6,149.46,611.21,147.11z M582.23,166.99c-2.06,4.11-5.09,7.44-8.62,9.79
				c-7.93,5.68-18.6,6.85-27.91,2.15c-13.32-6.76-18.7-23.21-11.95-36.52c0.88-1.67,1.86-3.23,3.04-4.6
				c7.83-9.99,21.84-13.32,33.49-7.34c9.6,4.8,15.08,14.49,14.88,24.48C585.17,159.06,584.29,163.17,582.23,166.99z"/>
		</g>
		<g>
			<path class="st1" d="M862.08,756.76c-6.56,6.36-14.1,11.85-22.52,16.74c-33.59,19.39-81.18,27.42-136.79,24.28
				c-9.5-0.49-19.29-1.37-29.28-2.64c-70.21-8.32-150.5-32.9-230.6-73.54c-91.65-46.51-166.66-105.56-215.42-164.9
				c-5.87-7.15-11.46-14.3-16.45-21.44c-42.5-59.44-57.38-117.5-34.96-161.76v-0.1c28.49-56.3,110.84-77.16,214.34-63.45l-14,27.22
				c-88.13-12.24-156.18,2.94-178.6,47.29c-17.53,34.47-4.41,80.88,31.63,129.94c5.19,7.05,10.87,14.2,17.04,21.44
				c47.1,55.03,120.93,111.73,210.82,157.26c79.51,40.34,158.53,65.31,225.7,74.32c10.18,1.37,20.07,2.35,29.67,2.94
				c46.22,3.13,85.09-2.45,112.41-16.94c8.91-4.6,16.55-10.28,22.72-16.84C848.96,744.91,854.05,752.55,862.08,756.76z"/>
			<path class="st1" d="M899,684.69c-23.21-11.75-50.92-5.09-66.49,14.49c-2.15,2.84-4.21,5.87-5.87,9.2
				c-7.44,14.59-7.44,31.04-1.57,45.04c3.13,7.64,8.03,14.59,14.49,20.07c3.23,2.84,6.85,5.29,10.77,7.25
				c26.44,13.41,58.95,2.74,72.36-23.7C936.21,730.51,925.53,698.1,899,684.69z M898.9,745.01c-6.76,13.32-23.11,18.7-36.52,11.95
				c-0.1-0.1-0.2-0.1-0.29-0.2c-8.03-4.21-13.12-11.85-14.3-20.17c-0.78-5.39,0-10.97,2.64-16.16c0.88-1.66,1.86-3.23,3.04-4.6
				c7.83-9.99,21.84-13.32,33.49-7.34C900.37,715.24,905.75,731.59,898.9,745.01z"/>
			<path class="st1" d="M611.21,147.11c0-0.29-0.1-0.69-0.1-0.98c-0.1-0.49-0.2-0.98-0.29-1.47c-0.39-2.06-0.88-4.01-1.47-5.97
				c-0.1-0.69-0.29-1.27-0.59-1.86c-0.98-2.74-2.15-5.39-3.52-7.93c-0.88-1.47-1.76-2.94-2.74-4.41c-0.88-1.27-1.76-2.45-2.64-3.62
				c-0.1-0.2-0.29-0.39-0.49-0.59c-1.08-1.27-2.25-2.55-3.43-3.72c-2.15-2.15-4.5-4.11-6.95-5.87c-0.49-0.39-0.98-0.69-1.47-0.98
				c-1.27-0.78-2.55-1.57-3.82-2.25c0,0-0.1-0.1-0.2-0.1c-0.39-0.29-0.78-0.49-1.17-0.69c-0.2-0.1-0.49-0.2-0.78-0.29
				c-0.2-0.1-0.39-0.29-0.69-0.29c-1.08-0.69-2.25-1.08-3.43-1.47c-0.78-0.39-1.57-0.68-2.45-0.88c-1.66-0.69-3.23-1.17-4.9-1.47
				c-1.96-0.49-3.82-0.78-5.78-0.98h-0.1c-2.06-0.29-4.11-0.39-6.17-0.39c-5.68,0-11.26,0.88-16.55,2.64
				c-0.98,0.2-1.86,0.59-2.84,0.98c-1.08,0.39-2.25,0.88-3.33,1.37c-1.37,0.59-2.74,1.27-4.02,2.15c-0.98,0.49-1.86,1.08-2.84,1.66
				c-1.08,0.69-2.06,1.37-3.04,2.15c-1.17,0.78-2.25,1.66-3.23,2.74c-0.88,0.69-1.66,1.47-2.45,2.25c-1.27,1.18-2.45,2.45-3.43,3.82
				c-0.2,0.1-0.39,0.29-0.49,0.49c-0.59,0.69-1.08,1.47-1.67,2.25c-0.59,0.88-1.27,1.86-1.86,2.84c-0.78,1.17-1.57,2.45-2.15,3.82
				c-0.1,0.1-0.1,0.2-0.2,0.29c-0.1,0.2-0.2,0.29-0.2,0.49c-0.78,1.57-1.47,3.13-2.06,4.7c-0.29,0.59-0.49,1.17-0.59,1.76
				c-0.49,1.17-0.88,2.35-1.08,3.52c-0.29,0.69-0.39,1.27-0.59,1.96c-0.39,1.86-0.69,3.72-0.88,5.58c-0.29,2.84-0.49,5.48-0.39,8.23
				c0,0.49,0.1,1.08,0.1,1.57c0,0,0,0,0,0.1c0.1,1.17,0.2,2.45,0.39,3.62c0.49,3.62,1.37,7.15,2.55,10.67
				c1.27,3.43,2.84,6.76,4.7,9.89c1.27,2.06,2.64,4.11,4.21,6.07c0.78,0.98,1.57,1.86,2.45,2.74c0.78,0.98,1.67,1.86,2.55,2.64
				c0.88,0.88,1.76,1.57,2.64,2.35c3.04,2.45,6.27,4.6,9.89,6.46c1.96,0.98,3.92,1.86,5.87,2.55c1.76,0.69,3.52,1.17,5.29,1.66
				c0.49,0.1,0.98,0.2,1.47,0.29c1.76,0.39,3.62,0.69,5.48,0.88c3.23,0.39,6.46,0.49,9.79,0.29c2.45-0.2,4.8-0.49,7.25-0.98
				c1.17-0.29,2.35-0.59,3.52-0.88c1.17-0.29,2.35-0.69,3.53-1.08c2.25-0.88,4.5-1.76,6.66-2.94c1.08-0.49,2.15-1.08,3.23-1.76
				c3.13-1.86,6.17-4.11,8.81-6.66c0.88-0.69,1.66-1.47,2.45-2.35c0.78-0.78,1.47-1.57,2.15-2.35c1.37-1.66,2.64-3.33,3.82-5.19
				c0.88-1.27,1.57-2.45,2.25-3.82c0.1-0.1,0.1-0.1,0.1-0.2c0.29-0.39,0.49-0.78,0.69-1.17c0.49-0.98,0.98-1.96,1.37-2.94
				c0.1-0.2,0.2-0.29,0.2-0.49c1.17-2.74,2.15-5.48,2.74-8.32c0.1-0.49,0.29-1.08,0.39-1.66c0.29-1.76,0.59-3.43,0.78-5.19v-0.29
				c0.2-1.67,0.29-3.23,0.29-4.9v-1.08C611.7,151.81,611.6,149.46,611.21,147.11z M582.23,166.99c-2.06,4.11-5.09,7.44-8.62,9.79
				c-7.93,5.68-18.6,6.85-27.91,2.15c-13.32-6.76-18.7-23.21-11.95-36.52c0.88-1.67,1.86-3.23,3.04-4.6
				c7.83-9.99,21.84-13.32,33.49-7.34c9.6,4.8,15.08,14.49,14.88,24.48C585.17,159.06,584.29,163.17,582.23,166.99z"/>
		</g>
		<g>
			<path class="st1" d="M816.84,617.81l-9.3-29.18c70.99-53.66,108.3-112.61,92.92-159.71c-27.22-82.94-207.1-98.51-401.76-34.76
				c-159.41,52.19-279.46,141.3-302.77,217.38c-3.04,9.6-4.41,19-4.11,28c-1.27-0.98-2.55-1.86-4.01-2.55
				c-6.56-3.43-14-3.82-20.47-1.67c0.2-9.11,1.57-18.31,4.11-27.71c23.79-88.91,148.93-188.79,317.26-243.92
				c207.49-67.86,402.15-42.11,434.86,57.58C943.26,481.31,899.78,554.26,816.84,617.81z"/>
		</g>
		<path class="st1" d="M199.86,613.21c-1.27-0.68-2.55-1.27-3.92-1.66c-7.93-3.43-16.35-4.6-24.48-3.92
			c-14.69,1.08-28.59,8.13-38.09,20.07c-2.15,2.84-4.21,5.87-5.88,9.2c-13.41,26.44-2.74,58.95,23.7,72.36
			c26.44,13.42,58.95,2.74,72.36-23.7C237.07,659.03,226.39,626.62,199.86,613.21z M199.76,673.52
			c-6.76,13.32-23.11,18.7-36.52,11.95c-13.32-6.76-18.7-23.21-11.95-36.52c0.88-1.66,1.86-3.23,3.04-4.6
			c3.43-4.31,7.93-7.44,13.02-9.01c6.46-2.15,13.9-1.76,20.47,1.67c1.47,0.68,2.74,1.57,4.01,2.55
			C202.21,647.18,205.93,661.58,199.76,673.52z"/>
	</g>
	<path class="st2" d="M560.38,499.72c-19.46-9.86-42.71-4.27-55.77,12.15c-1.81,2.38-3.53,4.93-4.93,7.72
		c-11.25,22.17-2.3,49.44,19.87,60.69c22.17,11.25,49.44,2.3,60.69-19.88C591.59,538.16,582.64,510.98,560.38,499.72z"/>
</g>
</svg>
